[Header]
FileType HTR
DataType HTRS
FileVersion 1
NumSegments 48
NumFrames 3
DataFrameRate 30
EulerRotationOrder ZYX
CalibrationUnits mm
RotationUnits Degrees
GlobalAxisofGravity Y
BoneLengthAxis Y
ScaleFactor 1.0
[SegmentNames&Hierarchy]
Wolf	GLOBAL
Becken	Wolf
Bauch	Becken
Bauch_001	Bauch
Brust	Bauch_001
Hals	Brust
Kopf_002	Hals
Kopf	Kopf_002
Unterkiefer	Kopf
Hals_fett	Unterkiefer
Maulunten	Unterkiefer
Mauloben	Kopf
MundW_L	Kopf
MundW_R	Kopf
Augen_con	Kopf
IK_Aug_R	Augen_con
IK_Aug_L	Augen_con
Aug_R	Kopf
aug_L	Kopf
Ohr_L	Kopf
Ohr_R	Kopf
Braun_O_L	Kopf
Braun_O_R	Kopf
aug_lied_O_L	Kopf
aug_lied_O_R	Kopf
aug_lied_U_L	Kopf
aug_lied_U_R	Kopf
Bauch_003	Brust
Schalterplatte_L	Bauch_003
Oberarm_L	Schalterplatte_L
Unterarm_L	Oberarm_L
Vorderpfote_L	Unterarm_L
Schalterplatte_R	Bauch_003
Oberarm_R	Schalterplatte_R
Unterarm_R	Oberarm_R
Vorderpfote_R	Unterarm_R
Schwanz	Becken
Schwanz_001	Schwanz
Schwanz_002	Schwanz_001
Schwanz_003	Schwanz_002
Oberschenkel_L	Becken
Unterschenkel_L	Oberschenkel_L
Pfote1_L	Unterschenkel_L
Pfote2_L	Pfote1_L
Oberschenkel_R	Becken
Unterschenkel_R	Oberschenkel_R
Pfote1_R	Unterschenkel_R
Pfote2_R	Pfote1_R
[BasePosition]
Wolf	0	0	0	0	0	0	1
Becken	0	0	0	0	0	0	1
Bauch	0	0	0	0	0	0	1
Bauch_001	0	0	0	0	0	0	1
Brust	0	0	0	0	0	0	1
Hals	0	0	0	0	0	0	1
Kopf_002	0	0	0	0	0	0	1
Kopf	0	0	0	0	0	0	1
Unterkiefer	0	0	0	0	0	0	1
Hals_fett	0	0	0	0	0	0	1
Maulunten	0	0	0	0	0	0	1
Mauloben	0	0	0	0	0	0	1
MundW_L	0	0	0	0	0	0	1
MundW_R	0	0	0	0	0	0	1
Augen_con	0	0	0	0	0	0	1
IK_Aug_R	0	0	0	0	0	0	1
IK_Aug_L	0	0	0	0	0	0	1
Aug_R	0	0	0	0	0	0	1
aug_L	0	0	0	0	0	0	1
Ohr_L	0	0	0	0	0	0	1
Ohr_R	0	0	0	0	0	0	1
Braun_O_L	0	0	0	0	0	0	1
Braun_O_R	0	0	0	0	0	0	1
aug_lied_O_L	0	0	0	0	0	0	1
aug_lied_O_R	0	0	0	0	0	0	1
aug_lied_U_L	0	0	0	0	0	0	1
aug_lied_U_R	0	0	0	0	0	0	1
Bauch_003	0	0	0	0	0	0	1
Schalterplatte_L	0	0	0	0	0	0	1
Oberarm_L	0	0	0	0	0	0	1
Unterarm_L	0	0	0	0	0	0	1
Vorderpfote_L	0	0	0	0	0	0	1
Schalterplatte_R	0	0	0	0	0	0	1
Oberarm_R	0	0	0	0	0	0	1
Unterarm_R	0	0	0	0	0	0	1
Vorderpfote_R	0	0	0	0	0	0	1
Schwanz	0	0	0	0	0	0	1
Schwanz_001	0	0	0	0	0	0	1
Schwanz_002	0	0	0	0	0	0	1
Schwanz_003	0	0	0	0	0	0	1
Oberschenkel_L	0	0	0	0	0	0	1
Unterschenkel_L	0	0	0	0	0	0	1
Pfote1_L	0	0	0	0	0	0	1
Pfote2_L	0	0	0	0	0	0	1
Oberschenkel_R	0	0	0	0	0	0	1
Unterschenkel_R	0	0	0	0	0	0	1
Pfote1_R	0	0	0	0	0	0	1
Pfote2_R	0	0	0	0	0	0	1
[Wolf]
10	0	0	0	-90	-0	0	1.0
11	0	0	0	-90	-0	0	1.0
12	0	0	0	-90	-0	0	1.0
[Becken]
10	0	0.3252899647	-0.2442857474	-2.067962885	164.4212189	89.26520538	1.0
11	0	0.3181299567	-0.2319097817	-2.067962885	164.4212189	89.26520538	1.0
12	0	0.3137220144	-0.2242937535	-2.067962885	164.4212189	89.26520538	1.0
[Bauch]
10	0.9984878302	-0.00741992658	-0.150611341	-6.458931239e-07	12.60522842	-8.201818247e-08	1.0
11	0.9984878302	-0.00741992658	-0.150611341	-6.458931239e-07	12.60522842	-8.201818247e-08	1.0
12	0.9984878302	-0.00741992658	-0.150611341	-6.458931239e-07	12.60522842	-8.201818247e-08	1.0
[Bauch_001]
10	1.071342349	0.006600080058	-0.1893585622	-1.568805601e-07	2.360082865	-2.503413654e-08	1.0
11	1.071342349	0.006600080058	-0.1893585622	-1.568805601e-07	2.360082865	-2.503413654e-08	1.0
12	1.071342349	0.006600080058	-0.1893585622	-1.568805601e-07	2.360082865	-2.503413654e-08	1.0
[Brust]
10	1.41907382	-0.01381989196	0.3623858392	3.618613846e-06	10.7627573	-4.096809789e-05	1.0
11	1.41907382	-0.01381989196	0.3623858392	3.618613846e-06	10.7627573	-4.096809789e-05	1.0
12	1.41907382	-0.01381989196	0.3623858392	3.618613846e-06	10.7627573	-4.096809789e-05	1.0
[Hals]
10	1.1844244	-0.01484991144	1.02827692	-4.51789947e-06	46.87745285	-2.16624926e-06	1.0
11	1.1844244	-0.01484991144	1.02827692	-4.51789947e-06	46.87745285	-2.16624926e-06	1.0
12	1.1844244	-0.01484991144	1.02827692	-4.51789947e-06	46.87745285	-2.16624926e-06	1.0
[Kopf_002]
10	1.75259161	3.012944944e-05	0.2651725411	0.006653842982	-165.1497192	0.002556535648	1.0
11	1.75259161	3.012944944e-05	0.2651725411	0.006653842982	-165.1497192	0.002556535648	1.0
12	1.75259161	3.012944944e-05	0.2651725411	0.006653842982	-165.1497192	0.002556535648	1.0
[Kopf]
10	1.015781879	8.032657206e-08	9.111317922e-08	0.06872025877	123.2280426	-0.02605217695	1.0
11	1.015781879	8.032657206e-08	9.111317922e-08	0.06872025877	123.2280426	-0.02605217695	1.0
12	1.015781879	8.032657206e-08	9.111317922e-08	0.06872025877	123.2280426	-0.02605217695	1.0
[Unterkiefer]
10	0.6370437145	0.004552738741	0.4060620368	5.412721157	-68.3888092	-3.09354353	1.0
11	0.6370437145	0.004552738741	0.4060620368	5.412721157	-68.3888092	-3.09354353	1.0
12	0.6370437145	0.004552738741	0.4060620368	5.412721157	-68.3888092	-3.09354353	1.0
[Hals_fett]
10	0.2998299599	0.007747137919	0.1206380203	-5.071650982	-59.35961533	5.585566998	1.0
11	0.2998299599	0.007747137919	0.1206380203	-5.071650982	-59.35961533	5.585566998	1.0
12	0.2998299599	0.007747137919	0.1206380203	-5.071650982	-59.35961533	5.585566998	1.0
[Maulunten]
10	0.08317943662	-0.007747350261	-0.1206459776	-3.32220912	38.97271347	-0.871876061	1.0
11	0.08317943662	-0.007747350261	-0.1206459776	-3.32220912	38.97271347	-0.871876061	1.0
12	0.08317943662	-0.007747350261	-0.1206459776	-3.32220912	38.97271347	-0.871876061	1.0
[Mauloben]
10	0.910148263	0.0004056794569	0.4003701806	-0.1032674983	-28.77768707	0.03543139994	1.0
11	0.910148263	0.0004056794569	0.4003701806	-0.1032674983	-28.77768707	0.03543139994	1.0
12	0.910148263	0.0004056794569	0.4003701806	-0.1032674983	-28.77768707	0.03543139994	1.0
[MundW_L]
10	0.673060894	-0.3618556261	0.3751286268	-179.8370972	-17.94884872	24.71397209	1.0
11	0.673060894	-0.3618556261	0.3751286268	-179.8370972	-17.94884872	24.71397209	1.0
12	0.673060894	-0.3618556261	0.3751286268	-179.8370972	-17.94884872	24.71397209	1.0
[MundW_R]
10	0.6732318401	0.3627035022	0.37398085	179.6653442	-18.02427101	-24.69083977	1.0
11	0.6732318401	0.3627035022	0.37398085	179.6653442	-18.02427101	-24.69083977	1.0
12	0.6732318401	0.3627035022	0.37398085	179.6653442	-18.02427101	-24.69083977	1.0
[Augen_con]
10	1.807372689	-0.0001604028512	0.1835819334	0.09822253883	157.1545258	0.02385936864	1.0
11	1.807372689	-0.0001604028512	0.1835819334	0.09822253883	157.1545258	0.02385936864	1.0
12	1.807372689	-0.0001604028512	0.1835819334	0.09822253883	157.1545258	0.02385936864	1.0
[IK_Aug_R]
10	0.3461304307	0.2943200469	-8.032657206e-08	-0.4194762409	-4.963055134	165.6946411	1.0
11	0.3461304307	0.2943200469	-8.032657206e-08	-0.4194762409	-4.963055134	165.6946411	1.0
12	0.3461304307	0.2943200469	-8.032657206e-08	-0.4194762409	-4.963055134	165.6946411	1.0
[IK_Aug_L]
10	0.3461307883	-0.2943199575	-1.629814861e-08	0.4194769561	-4.963055134	-165.6946411	1.0
11	0.3461307883	-0.2943199575	-1.629814861e-08	0.4194769561	-4.963055134	-165.6946411	1.0
12	0.3461307883	-0.2943199575	-1.629814861e-08	0.4194769561	-4.963055134	-165.6946411	1.0
[Aug_R]
10	1.0351547	0.2207805812	-0.09605748951	176.004776	-17.29163933	12.85548019	1.0
11	1.0351547	0.2207805812	-0.09605748951	176.004776	-17.29163933	12.85548019	1.0
12	1.0351547	0.2207805812	-0.09605748951	176.004776	-17.29163933	12.85548019	1.0
[aug_L]
10	1.035044074	-0.2215988934	-0.09535883367	-176.1891022	-17.33178139	-12.83103275	1.0
11	1.035044074	-0.2215988934	-0.09535883367	-176.1891022	-17.33178139	-12.83103275	1.0
12	1.035044074	-0.2215988934	-0.09535883367	-176.1891022	-17.33178139	-12.83103275	1.0
[Ohr_L]
10	0.6407760978	-0.3659991622	-0.6893320084	-24.34924507	53.07766342	-15.02013397	1.0
11	0.6407760978	-0.3659991622	-0.6893320084	-24.34924507	53.07766342	-15.02013397	1.0
12	0.6407760978	-0.3659991622	-0.6893320084	-24.34924507	53.07766342	-15.02013397	1.0
[Ohr_R]
10	0.6409583092	0.3634999394	-0.6904845238	24.05786133	53.12416077	14.75857162	1.0
11	0.6409583092	0.3634999394	-0.6904845238	24.05786133	53.12416077	14.75857162	1.0
12	0.6409583092	0.3634999394	-0.6904845238	24.05786133	53.12416077	14.75857162	1.0
[Braun_O_L]
10	0.9801794291	-0.3706048727	-0.3292538524	-143.3172302	-34.69635391	52.39493942	1.0
11	0.9801794291	-0.3706048727	-0.3292538524	-143.3172302	-34.69635391	52.39493942	1.0
12	0.9801794291	-0.3706048727	-0.3292538524	-143.3172302	-34.69635391	52.39493942	1.0
[Braun_O_R]
10	0.9803634882	0.3690741956	-0.3304223716	143.1826782	-34.83971786	-52.3467598	1.0
11	0.9803634882	0.3690741956	-0.3304223716	143.1826782	-34.83971786	-52.3467598	1.0
12	0.9803634882	0.3690741956	-0.3304223716	143.1826782	-34.83971786	-52.3467598	1.0
[aug_lied_O_L]
10	1.038881421	-0.3271433711	-0.1608108282	-175.8613434	-20.15596199	60.31666946	1.0
11	1.038881421	-0.3271433711	-0.1608108282	-175.8613434	-20.15596199	60.31666946	1.0
12	1.038881421	-0.3271433711	-0.1608108282	-175.8613434	-20.15596199	60.31666946	1.0
[aug_lied_O_R]
10	1.039044261	0.3261157274	-0.1618429124	175.7657928	-20.31323814	-60.31218338	1.0
11	1.039044261	0.3261157274	-0.1618429124	175.7657928	-20.31323814	-60.31218338	1.0
12	1.039044261	0.3261157274	-0.1618429124	175.7657928	-20.31323814	-60.31218338	1.0
[aug_lied_U_L]
10	1.021915555	-0.3312865496	-0.1338484734	-159.8099365	-28.7482872	60.17461395	1.0
11	1.021915555	-0.3312865496	-0.1338484734	-159.8099365	-28.7482872	60.17461395	1.0
12	1.021915555	-0.3312865496	-0.1338484734	-159.8099365	-28.7482872	60.17461395	1.0
[aug_lied_U_R]
10	1.02207756	0.3303526342	-0.1348843277	159.7071381	-28.90532684	-60.15359116	1.0
11	1.02207756	0.3303526342	-0.1348843277	159.7071381	-28.90532684	-60.15359116	1.0
12	1.02207756	0.3303526342	-0.1348843277	159.7071381	-28.90532684	-60.15359116	1.0
[Bauch_003]
10	1.444672227	0.03385011479	-1.56629622	-3.870021374e-06	-137.6799469	1.039222207e-05	1.0
11	1.444672227	0.03385011479	-1.56629622	-3.870021374e-06	-137.6799469	1.039222207e-05	1.0
12	1.444672227	0.03385011479	-1.56629622	-3.870021374e-06	-137.6799469	1.039222207e-05	1.0
[Schalterplatte_L]
10	0.9151554704	-0.382711947	-0.03712551296	-36.20084763	75.79640961	-65.38224792	1.0
11	0.9059779644	-0.3831166029	-0.02507150359	-30.7383213	75.19438934	-59.88009262	1.0
12	0.8995133638	-0.3835212886	-0.01481846347	-26.56838608	74.55223846	-55.67802429	1.0
[Oberarm_L]
10	1.418636918	9.313225746e-08	1.303851604e-07	-76.58052826	-65.19746399	91.8428421	1.0
11	1.418636918	9.313225746e-08	1.303851604e-07	-77.17543793	-65.23932648	92.36159515	1.0
12	1.418636918	9.313225746e-08	1.303851604e-07	-77.70157623	-65.27433777	92.82019806	1.0
[Unterarm_L]
10	2.028227806	1.885928214e-07	1.862644972e-08	7.550352573	64.53187561	7.848304272	1.0
11	2.028227806	1.885928214e-07	1.862644972e-08	6.76878643	62.80113602	7.032430649	1.0
12	2.028227806	1.885928214e-07	1.862644972e-08	6.194170475	61.32339096	6.438464642	1.0
[Vorderpfote_L]
10	1.705947399	2.607703209e-07	2.305023372e-07	-20.56318092	90.99733734	-19.54498482	1.0
11	1.705947399	2.607703209e-07	2.305023372e-07	-3.275941133	92.9503479	-2.307966471	1.0
12	1.705947399	2.607703209e-07	2.305023372e-07	-1.991354823	94.01846313	-1.052134037	1.0
[Schalterplatte_R]
10	0.9266973734	0.3877360225	0.05161514878	93.26899719	78.84606934	128.2503815	1.0
11	0.9073409438	0.3861200511	0.03293838724	108.8870544	76.44606018	144.1268311	1.0
12	0.8967865109	0.3845040202	0.01776280999	115.9799118	74.24645996	151.3521576	1.0
[Oberarm_R]
10	1.418636441	2.235174179e-07	1.490116119e-07	123.6673203	-48.9197464	-151.4614105	1.0
11	1.418636441	2.235174179e-07	1.490116119e-07	124.7936478	-47.45112991	-153.3459015	1.0
12	1.418636441	2.235174179e-07	1.490116119e-07	125.0862579	-46.83253098	-153.9546814	1.0
[Unterarm_R]
10	2.028232098	1.350417733e-07	-7.450580597e-08	-23.64086342	74.0787735	-25.88958359	1.0
11	2.028232098	1.350417733e-07	-7.450580597e-08	-25.1716156	74.65462494	-27.60545349	1.0
12	2.028232098	1.350417733e-07	-7.450580597e-08	-26.96996689	75.53850555	-29.43922806	1.0
[Vorderpfote_R]
10	1.705937624	9.313230187e-09	7.101335342e-08	-5.743201733	9.937837601	4.418645859	1.0
11	1.705937624	9.313230187e-09	7.101335342e-08	-6.712285995	-2.090736151	5.62908268	1.0
12	1.705937624	9.313230187e-09	7.101335342e-08	-7.487682819	-9.530685425	6.573282719	1.0
[Schwanz]
10	-0.1026309952	-1.338776023e-08	0.06696671247	0.04507211968	-121.9205475	-0.1244128123	1.0
11	-0.09526655823	-1.338776023e-08	0.06363325566	0.02347569726	-121.4808426	-0.06356855482	1.0
12	-0.09073613584	-1.338776023e-08	0.06029980257	0.009466130286	-121.2104721	-0.02547659166	1.0
[Schwanz_001]
10	0.9104326963	6.926712359e-08	1.564329999e-09	-0.6423788667	-8.338089943	0.5988091826	1.0
11	0.9104326963	6.926712359e-08	1.564329999e-09	-0.6542407274	-7.830059052	0.6132689714	1.0
12	0.9104326963	6.926712359e-08	1.564329999e-09	-0.6614453197	-7.517662525	0.6220836043	1.0
[Schwanz_002]
10	0.7855662704	6.053597446e-08	1.369335223e-07	-0.3318852186	-14.42355442	0.2559163868	1.0
11	0.7855662704	6.053597446e-08	1.369335223e-07	-0.3677591681	-14.70921326	0.2839522362	1.0
12	0.7855662704	6.053597446e-08	1.369335223e-07	-0.3899400234	-14.88487816	0.3013305366	1.0
[Schwanz_003]
10	0.8350353241	6.286426668e-08	8.163624443e-08	0.268902123	5.022209167	-0.1754083037	1.0
11	0.8350353241	6.286426668e-08	8.163624443e-08	0.3519901335	8.456026077	-0.2582519948	1.0
12	0.8350353241	6.286426668e-08	8.163624443e-08	0.4000727236	10.55049706	-0.3061740696	1.0
[Oberschenkel_L]
10	0.659478426	-0.5837000012	-0.07633379102	14.24403095	-57.80678558	-8.641016006	1.0
11	0.6800572872	-0.5837000012	-0.09719676524	13.13120937	-53.26961136	-7.302058697	1.0
12	0.6927179694	-0.5837000012	-0.1100224406	12.34776402	-48.76449966	-6.287321568	1.0
[Unterschenkel_L]
10	1.686439037	1.251151218e-07	8.596818257e-10	-140.1319885	-68.34346008	149.8139801	1.0
11	1.686439037	1.246912547e-07	9.552021396e-10	-145.3314514	-64.80028534	155.6425323	1.0
12	1.686439037	1.242673875e-07	1.050722287e-09	-148.2182159	-61.79141235	159.103775	1.0
[Pfote1_L]
10	1.190900326	1.355432602e-07	-1.52414529e-07	1.415544391	44.35647583	-7.269062519	1.0
11	1.190900326	1.361163839e-07	-1.509817196e-07	1.263936639	45.92500687	-7.483642101	1.0
12	1.190900326	1.366894935e-07	-1.495489101e-07	1.139784694	47.09812546	-7.654333591	1.0
[Pfote2_L]
10	0.9876256585	1.563905414e-07	-9.714410965e-08	27.19595337	108.4986649	20.29461288	1.0
11	0.9876256585	1.546234216e-07	-9.55202637e-08	28.45820045	109.1315384	21.21852684	1.0
12	0.9876256585	1.528563018e-07	-9.389641775e-08	30.31214523	109.248764	22.80896759	1.0
[Oberschenkel_R]
10	0.6018403172	0.5837000608	0.1034142151	-11.80138779	-45.03923798	5.545788288	1.0
11	0.5815845132	0.5837000608	0.1072569638	-12.21116543	-48.0356636	6.113584042	1.0
12	0.5643607974	0.5837000608	0.1110997126	-12.6876955	-50.88663864	6.737013817	1.0
[Unterschenkel_R]
10	1.686449051	1.11758709e-07	3.725289943e-08	-66.67495728	-106.6418915	51.80097198	1.0
11	1.686449051	1.11758709e-07	3.725289943e-08	-71.55625916	-105.805542	56.82485962	1.0
12	1.686449051	1.11758709e-07	3.725289943e-08	-77.01004028	-105.1445923	62.42960358	1.0
[Pfote1_R]
10	1.190900326	2.176966518e-07	1.11758709e-07	-5.44808197	63.10369492	1.806150198	1.0
11	1.190900326	2.176966518e-07	1.11758709e-07	-5.564297199	63.57596207	1.676041961	1.0
12	1.190900326	2.176966518e-07	1.11758709e-07	-5.658390045	63.94274902	1.571178436	1.0
[Pfote2_R]
10	0.9876256585	1.024454832e-07	-4.656610209e-09	-47.83222198	98.56903076	-35.58975983	1.0
11	0.9876256585	1.024454832e-07	-4.656610209e-09	-41.45253372	98.89756775	-29.23062134	1.0
12	0.9876256585	1.024454832e-07	-4.656610209e-09	-35.95814133	99.34991455	-23.79488182	1.0
[EndOfFile]
